<svg width="0" height="0" class="hidden">
  <symbol xmlns="http://www.w3.org/2000/svg" enable-background="new 0 0 24 24" viewBox="0 0 24 24" id="leaderboard">
    <rect fill="none" height="24" width="24"></rect>
    <g>
      <path d="M16,11V3H8v6H2v12h20V11H16z M10,5h4v14h-4V5z M4,11h4v8H4V11z M20,19h-4v-6h4V19z"></path>
    </g>
  </symbol>
  <symbol xmlns="http://www.w3.org/2000/svg"   viewBox="0 0 24 24" id="music_on">
    <path d="M0 0h24v24H0V0z" fill="none"></path>
    <path d="M12 3l.01 10.55c-.59-.34-1.27-.55-2-.55C7.79 13 6 14.79 6 17s1.79 4 4.01 4S14 19.21 14 17V7h4V3h-6zm-1.99 16c-1.1 0-2-.9-2-2s.9-2 2-2 2 .9 2 2-.9 2-2 2z"></path>
  </symbol>
  <symbol xmlns="http://www.w3.org/2000/svg"   viewBox="0 0 24 24" id="music_off">
    <path d="M0 0h24v24H0V0z" fill="none"></path>
    <path d="M14 7h4V3h-6v4.61l2 2zm-2 3.44L4.41 2.86 3 4.27l9 9v.28c-.94-.54-2.1-.75-3.33-.32-1.34.48-2.37 1.67-2.61 3.07-.46 2.74 1.86 5.08 4.59 4.65 1.96-.31 3.35-2.11 3.35-4.1v-1.58L19.73 21l1.41-1.41L12 10.44zM10 19c-1.1 0-2-.9-2-2s.9-2 2-2 2 .9 2 2-.9 2-2 2z"></path>
  </symbol>
  <symbol xmlns="http://www.w3.org/2000/svg"   viewBox="0 0 24 24" id="sound_off">
    <path d="M0 0h24v24H0V0z" fill="none"></path>
    <path d="M4.34 2.93L2.93 4.34 7.29 8.7 7 9H3v6h4l5 5v-6.59l4.18 4.18c-.65.49-1.38.88-2.18 1.11v2.06c1.34-.3 2.57-.92 3.61-1.75l2.05 2.05 1.41-1.41L4.34 2.93zM10 15.17L7.83 13H5v-2h2.83l.88-.88L10 11.41v3.76zM19 12c0 .82-.15 1.61-.41 2.34l1.53 1.53c.56-1.17.88-2.48.88-3.87 0-4.28-2.99-7.86-7-8.77v2.06c2.89.86 5 3.54 5 6.71zm-7-8l-1.88 1.88L12 7.76zm4.5 8c0-1.77-1.02-3.29-2.5-4.03v1.79l2.48 2.48c.01-.08.02-.16.02-.24z"></path>
  </symbol>
  <symbol xmlns="http://www.w3.org/2000/svg"   viewBox="0 0 24 24" id="sound_on">
    <path d="M0 0h24v24H0V0z" fill="none"></path>
    <path d="M3 9v6h4l5 5V4L7 9H3zm7-.17v6.34L7.83 13H5v-2h2.83L10 8.83zM16.5 12c0-1.77-1.02-3.29-2.5-4.03v8.05c1.48-.73 2.5-2.25 2.5-4.02zM14 3.23v2.06c2.89.86 5 3.54 5 6.71s-2.11 5.85-5 6.71v2.06c4.01-.91 7-4.49 7-8.77 0-4.28-2.99-7.86-7-8.77z"></path>
  </symbol>
</svg>